<?xml version="1.0" encoding="UTF-8"?>
<!DOCTYPE svg PUBLIC "-//W3C//DTD SVG 1.1//EN" "http://www.w3.org/Graphics/SVG/1.1/DTD/svg11.dtd">
<!-- Creator: CorelDRAW -->
<svg xmlns="http://www.w3.org/2000/svg" xml:space="preserve" width="11in" height="3.2in" version="1.1" style="shape-rendering:geometricPrecision; text-rendering:geometricPrecision; image-rendering:optimizeQuality; fill-rule:evenodd; clip-rule:evenodd"
viewBox="0 0 11000 3200"
 xmlns:xlink="http://www.w3.org/1999/xlink"
 xmlns:xodm="http://www.corel.com/coreldraw/odm/2003">
 <defs>
  <style type="text/css">
   <![CDATA[
    .fil0 {fill:#FEFEFE;fill-rule:nonzero}
    .fil1 {fill:#F4AF1B;fill-rule:nonzero}
   ]]>
  </style>
 </defs>
 <g id="Layer_x0020_1">
  <metadata id="CorelCorpID_0Corel-Layer"/>
  <path class="fil0" d="M4452 2945.89l-46.82 1.88 -27.15 128.26c-5.15,22.94 -2.33,28.09 2.8,28.09 7.97,0 30.43,-15.46 41.67,-27.15l7.03 9.83c-15.44,18.72 -51.03,50.08 -75.85,50.08 -10.77,0 -20.13,-13.58 -9.35,-61.79l27.14 -126.87 -34.64 0 -1.4 -4.21 11.71 -14.51 28.56 0 10.76 -44 35.11 -29.5 4.68 2.8 -16.85 70.7 54.76 0 -12.17 16.39z"/>
  <path class="fil0" d="M4535.33 2998.78c24.35,-45.87 51.96,-77.71 70.69,-77.71 7.96,0 15.92,5.61 20.13,12.17 3.28,5.62 3.28,13.58 -0.47,19.67 -3.26,5.61 -7.96,10.76 -12.64,14.04 -3.74,2.8 -7.49,2.33 -10.29,0 -5.15,-5.15 -10.31,-7.96 -15.46,-7.96 -5.61,0 -13.09,5.15 -23.87,20.13 -10.29,14.52 -24.81,36.52 -33.69,57.58 -7.03,31.37 -12.64,60.4 -18.74,91.29 -9.82,1.87 -22.47,5.15 -33.24,8.43l-3.28 -3.28c11.71,-50.1 25.28,-107.68 34.18,-157.29 2.81,-15.92 2.33,-20.61 -0.94,-20.61 -4.21,0 -19.65,9.83 -33.24,22.47l-6.56 -10.76c23.87,-26.22 52.9,-45.88 65.54,-45.88 12.18,0 12.64,21.53 5.62,54.31l-5.15 23.4 1.4 0z"/>
  <path class="fil0" d="M4764.71 3015.17c5.63,-18.25 12.64,-51.96 15.46,-66.94 -6.56,-3.28 -18.74,-6.56 -30.91,-6.56 -12.64,0 -25.28,3.75 -33.71,9.83 -31.83,23.42 -50.56,78.18 -50.56,124.53 0,21.07 5.61,30.89 12.64,30.89 18.25,0 71.62,-58.99 87.07,-91.75zm61.33 73.03c-25.75,31.37 -57.11,48.69 -68.82,48.69 -8.91,0 -14.99,-7.03 -7.96,-41.19l9.36 -44.47 -1.4 0c-17.79,25.74 -40.26,48.21 -60.39,64.6 -15.46,12.64 -30.9,21.07 -43.54,21.07 -12.17,0 -27.15,-15.46 -27.15,-52.43 0,-47.29 22,-98.79 56.18,-127.35 23.88,-19.65 58.06,-36.04 87.54,-36.04 9.36,0 18.72,1.41 29.03,3.75 6.08,1.4 12.64,2.8 17.79,2.8l0.93 1.88c-7.49,29.01 -21.53,92.69 -32.31,152.15 -2.81,15.91 -1.4,20.12 0.94,20.12 4.21,0 20.13,-11.24 34.17,-24.82l5.63 11.24z"/>
  <path class="fil0" d="M5061.51 3091.48c-27.61,30.43 -53.83,45.42 -66,45.42 -11.25,0 -15.91,-12.64 -7.03,-48.7 8.43,-34.64 16.39,-69.29 24.35,-103.93 6.56,-26.68 3.74,-33.24 -3.28,-33.24 -20.6,0 -74.9,57.58 -98.32,97.37 -5.61,22.94 -12.63,50.57 -18.25,79.13 -12.18,2.33 -24.8,5.61 -33.71,8.89l-2.8 -3.28c13.11,-51.03 26.68,-106.74 38.37,-158.69 3.29,-14.99 1.87,-18.74 -0.93,-18.74 -4.21,0 -18.25,9.83 -29.96,21.07l-6.56 -11.24c25.75,-27.15 52.91,-44.47 66.02,-44.47 10.29,0 12.17,15.92 3.74,51.96l-9.82 40.74 0.93 0c31.83,-43.54 66.47,-70.69 86.14,-81.93 12.17,-7.49 22,-10.76 30.91,-10.76 11.69,0 24.8,7.01 10.76,66.94 -7.49,31.83 -15.46,64.61 -22.94,96.9 -2.81,12.64 -2.33,16.86 0.94,16.86 4.2,0 16.85,-7.96 30.43,-21.54l7.01 11.24z"/>
  <path class="fil0" d="M5084.44 3103.18c-0.47,-7.96 5.63,-14.98 13.58,-19.67 6.09,-2.81 9.36,-1.86 11.7,1.42 12.18,18.25 29.5,28.56 44.94,28.56 18.72,0 31.36,-13.11 31.36,-28.1 0,-11.71 -5.14,-22 -27.61,-39.32 -21.07,-15.92 -40.72,-33.24 -40.72,-57.13 0,-13.57 5.61,-29.01 24.33,-44.93 14.52,-12.64 36.99,-22.94 52.43,-22.94 20.14,0 36.06,14.04 36.06,26.22 0,7.96 -4.68,14.97 -11.71,19.65 -4.21,2.82 -7.49,1.87 -10.29,-2.33 -9.37,-11.71 -20.61,-21.07 -36.53,-21.07 -13.57,0 -25.28,10.31 -25.28,26.22 0,16.85 13.57,28.56 30.91,41.67 27.61,21.06 38.85,34.64 38.85,54.76 0,35.58 -46.81,70.69 -84.72,70.69 -22.01,0 -47.29,-17.32 -47.29,-33.71z"/>
  <path class="fil0" d="M5300.72 2929.5c7.03,-35.58 18.74,-70.7 39.79,-94.1 21.54,-23.87 48.22,-37.46 66.96,-37.46 16.37,0 28.54,11.71 28.08,19.67 0,7.48 -7.03,15.92 -11.71,19.65 -4.21,2.82 -8.43,3.29 -11.71,-0.46 -9.83,-10.76 -19.65,-16.39 -29.49,-16.39 -17.32,0 -31.83,22.47 -45.87,109.08l52.89 0 -9.36 14.98 -46.8 4.68c-8.91,51.49 -13.59,78.64 -24.35,130.61 -16.39,80.52 -33.7,115.63 -59.46,142.31 -20.6,22.01 -40.26,29.5 -52.43,29.5 -13.57,0 -29.49,-9.83 -29.49,-20.13 0,-6.1 6.08,-14.06 13.1,-19.67 3.75,-3.28 6.1,-2.81 8.9,0 7.02,7.03 21.06,11.69 29.49,11.69 7.96,0 14.98,-3.74 20.12,-9.35 6.1,-7.03 16.86,-26.69 32.78,-117.52 10.76,-64.14 17.32,-102.53 24.81,-148.4l-38.38 0 -1.4 -5.63 14.03 -13.09 29.5 0z"/>
  <path class="fil0" d="M5472.07 3115.35c24.81,-10.76 51.03,-60.39 50.56,-120.32 0,-37.92 -16.39,-55.71 -37.92,-55.71 -7.03,0 -12.64,1.4 -17.79,3.75 -18.26,8.43 -49.63,46.82 -49.63,118.44 0,34.64 14.52,56.64 39.33,56.64 5.61,0 10.29,-0.93 15.44,-2.81zm-94.1 -51.03c0,-60.86 32.31,-107.68 71.15,-127.81 16.86,-9.36 36.06,-15.44 51.03,-15.44 38.39,0 61.81,26.68 61.81,73.03 0,40.26 -17.32,86.14 -50.1,113.3 -20.13,16.86 -45.87,29.48 -72.1,29.48 -44.47,0 -61.79,-35.11 -61.79,-72.56z"/>
  <path class="fil0" d="M5661.66 2998.78c24.35,-45.87 51.96,-77.71 70.69,-77.71 7.96,0 15.92,5.61 20.13,12.17 3.28,5.62 3.28,13.58 -0.47,19.67 -3.26,5.61 -7.96,10.76 -12.64,14.04 -3.74,2.8 -7.48,2.33 -10.29,0 -5.15,-5.15 -10.3,-7.96 -15.46,-7.96 -5.61,0 -13.1,5.15 -23.87,20.13 -10.29,14.52 -24.81,36.52 -33.7,57.58 -7.03,31.37 -12.64,60.4 -18.74,91.29 -9.82,1.87 -22.47,5.15 -33.24,8.43l-3.28 -3.28c11.71,-50.1 25.28,-107.68 34.18,-157.29 2.8,-15.92 2.33,-20.61 -0.94,-20.61 -4.21,0 -19.65,9.83 -33.24,22.47l-6.56 -10.76c23.87,-26.22 52.9,-45.88 65.54,-45.88 12.18,0 12.64,21.53 5.63,54.31l-5.15 23.4 1.41 0z"/>
  <path class="fil0" d="M6097.48 3091.94c-24.8,28.08 -54.3,44.94 -66,44.94 -11.25,0 -15.46,-13.58 -7.03,-47.75l24.81 -108.14c5.63,-22.94 2.81,-30.43 -4.21,-30.43 -22.47,0 -79.11,66 -95.5,97.37 -5.63,22 -13.11,52.9 -18.26,80.51 -12.64,1.41 -24.33,4.68 -34.17,7.96l-2.81 -2.81c11.7,-47.28 23.86,-95.03 33.7,-140.44 6.56,-31.83 5.62,-42.59 -3.74,-42.59 -22.94,0 -79.6,67.4 -94.57,97.37 -6.56,21.07 -13.57,52.43 -19.19,80.51 -12.18,1.41 -23.88,4.68 -33.71,7.96l-3.28 -2.81c14.06,-52.9 27.15,-106.26 38.86,-158.69 3.75,-17.33 2.33,-19.67 -0.47,-20.14 -4.68,0 -21.07,12.17 -32.31,22.94l-5.61 -11.7c26.22,-28.09 53.83,-44.94 66,-44.94 11.71,0 13.58,17.32 3.75,58.06l-8.42 32.76 0.93 0c32.31,-44.94 64.6,-69.75 84.26,-81.44 10.76,-6.1 19.67,-9.37 28.56,-9.37 13.11,0 24.82,11.71 11.24,71.17l-4.21 19.19 0.93 0c31.83,-44.48 65.54,-70.24 86.14,-81.46 11.71,-6.1 19.67,-8.9 28.1,-8.9 9.82,0 24.8,5.62 10.29,67.87l-22.93 97.85c-2.82,11.71 -1.87,14.99 0.93,14.99 4.21,0 18.25,-8.43 31.83,-21.53l6.08 11.69z"/>
  <path class="fil0" d="M6269.29 3015.17c5.63,-18.25 12.64,-51.96 15.44,-66.94 -6.54,-3.28 -18.72,-6.56 -30.89,-6.56 -12.64,0 -25.28,3.75 -33.71,9.83 -31.83,23.42 -50.56,78.18 -50.56,124.53 0,21.07 5.61,30.89 12.64,30.89 18.25,0 71.63,-58.99 87.07,-91.75zm61.33 73.03c-25.75,31.37 -57.11,48.69 -68.82,48.69 -8.91,0 -14.99,-7.03 -7.96,-41.19l9.36 -44.47 -1.4 0c-17.8,25.74 -40.26,48.21 -60.39,64.6 -15.46,12.64 -30.91,21.07 -43.54,21.07 -12.17,0 -27.15,-15.46 -27.15,-52.43 0,-47.29 22,-98.79 56.18,-127.35 23.87,-19.65 58.06,-36.04 87.54,-36.04 9.36,0 18.72,1.41 29.03,3.75 6.08,1.4 12.64,2.8 17.79,2.8l0.93 1.88c-7.48,29.01 -21.53,92.69 -32.3,152.15 -2.81,15.91 -1.41,20.12 0.94,20.12 4.21,0 20.12,-11.24 34.17,-24.82l5.63 11.24z"/>
  <path class="fil0" d="M6477.61 2945.89l-46.82 1.88 -27.15 128.26c-5.15,22.94 -2.33,28.09 2.81,28.09 7.97,0 30.43,-15.46 41.67,-27.15l7.03 9.83c-15.44,18.72 -51.03,50.08 -75.85,50.08 -10.76,0 -20.13,-13.58 -9.35,-61.79l27.14 -126.87 -34.64 0 -1.41 -4.21 11.71 -14.51 28.56 0 10.76 -44 35.11 -29.5 4.68 2.8 -16.85 70.7 54.76 0 -12.17 16.39z"/>
  <path class="fil0" d="M6593.24 2852.72c0.47,14.04 -10.3,26.68 -24.82,26.68 -10.76,0 -18.72,-7.94 -18.72,-20.13 -0.46,-12.17 8.9,-27.63 24.82,-27.63 12.17,0 18.72,9.83 18.72,21.07zm-11.71 237.82c-15.91,18.74 -51.96,46.35 -67.87,46.35 -9.36,0 -15.92,-7.48 -6.56,-45.87l29.49 -119.37c2.35,-10.31 2.35,-14.99 -0.46,-14.99 -3.75,0 -17.79,7.96 -32.3,19.67l-5.61 -10.31c25.75,-25.28 58.52,-44.47 70.7,-44.47 10.75,0 10.29,14.99 4.67,36.99l-31.83 128.74c-2.8,11.24 -1.86,14.98 0.94,14.98 5.61,0 21.53,-12.18 32.76,-22l6.08 10.29z"/>
  <path class="fil0" d="M6712.62 3115.35c24.81,-10.76 51.03,-60.39 50.56,-120.32 0,-37.92 -16.39,-55.71 -37.91,-55.71 -7.03,0 -12.64,1.4 -17.79,3.75 -18.26,8.43 -49.63,46.82 -49.63,118.44 0,34.64 14.51,56.64 39.33,56.64 5.61,0 10.3,-0.93 15.44,-2.81zm-94.09 -51.03c0,-60.86 32.3,-107.68 71.15,-127.81 16.86,-9.36 36.06,-15.44 51.03,-15.44 38.39,0 61.8,26.68 61.8,73.03 0,40.26 -17.32,86.14 -50.1,113.3 -20.12,16.86 -45.87,29.48 -72.09,29.48 -44.47,0 -61.79,-35.11 -61.79,-72.56z"/>
  <path class="fil0" d="M7044.06 3091.48c-27.61,30.43 -53.83,45.42 -66,45.42 -11.25,0 -15.92,-12.64 -7.03,-48.7 8.43,-34.64 16.39,-69.29 24.35,-103.93 6.56,-26.68 3.74,-33.24 -3.28,-33.24 -20.59,0 -74.9,57.58 -98.32,97.37 -5.61,22.94 -12.63,50.57 -18.25,79.13 -12.18,2.33 -24.81,5.61 -33.71,8.89l-2.81 -3.28c13.11,-51.03 26.68,-106.74 38.37,-158.69 3.3,-14.99 1.88,-18.74 -0.93,-18.74 -4.21,0 -18.25,9.83 -29.96,21.07l-6.56 -11.24c25.75,-27.15 52.9,-44.47 66.01,-44.47 10.29,0 12.17,15.92 3.74,51.96l-9.82 40.74 0.93 0c31.83,-43.54 66.47,-70.69 86.14,-81.93 12.17,-7.49 22,-10.76 30.9,-10.76 11.69,0 24.8,7.01 10.76,66.94 -7.49,31.83 -15.46,64.61 -22.94,96.9 -2.81,12.64 -2.33,16.86 0.94,16.86 4.21,0 16.85,-7.96 30.43,-21.54l7.02 11.24z"/>
  <path class="fil0" d="M7315.1 2982.87c0,-26.68 -10.76,-45.41 -31.36,-45.41 -13.58,0 -25.75,8.43 -33.72,21.07 -10.3,14.52 -17.78,36.06 -17.78,60.86 0,27.63 13.11,42.14 29.96,42.14 24.82,0 52.91,-28.57 52.91,-78.65zm-7.96 214.42c0,-12.64 -12.64,-24.82 -34.18,-37.46 -15.44,-8.89 -28.56,-16.37 -35.11,-19.65 -31.36,14.97 -51.5,33.69 -51.5,51.03 0,23.4 30.43,40.72 63.21,40.72 35.11,0 57.58,-16.39 57.58,-34.64zm84.26 -265.44c-13.57,14.52 -25.75,20.13 -33.24,22 -3.75,0.47 -7.03,0.94 -12.17,1.41 1.86,6.09 3.74,13.58 3.74,25.75 0,33.71 -18.72,58.06 -35.57,72.1 -12.65,10.29 -33.72,22 -60.4,27.15 -5.61,4.21 -9.36,9.36 -9.36,14.51 0,7.49 11.71,15.92 33.71,27.61 44.94,23.42 63.21,42.14 63.21,62.28 0,38.39 -65.56,66.94 -110.48,66.94 -45.42,0 -84.74,-23.42 -83.81,-52.43 0.94,-20.14 27.15,-41.21 78.65,-67.42 -11.24,-7.49 -17.79,-16.86 -17.32,-23.42 0,-7.02 6.56,-15.44 29.03,-28.54 -27.15,-6.09 -41.21,-25.29 -41.21,-57.12 0,-30.43 15.46,-59.46 39.33,-78.18 19.19,-15.44 43.07,-23.41 59.91,-23.41 14.99,0 29.5,4.21 39.79,13.11 26.7,-0.47 43.54,-5.63 52.91,-10.78l3.28 8.43z"/>
  <path class="fil0" d="M7604.41 3089.14c-22.47,27.15 -53.83,47.75 -67.89,47.75 -9.82,0 -16.37,-8.89 -7.02,-49.63 3.74,-15.92 5.61,-25.28 8.89,-41.19l-0.93 0c-22.94,30.9 -50.56,58.98 -75.37,76.31 -13.11,9.36 -26.68,14.51 -37.92,14.51 -12.64,0 -27.63,-8.89 -15.92,-59.46 8.89,-36.04 17.32,-71.63 25.74,-107.67 2.82,-11.24 1.89,-14.98 -0.93,-15.46 -3.74,0 -16.85,8.9 -32.76,22.48l-5.62 -11.71c27.62,-27.15 56.65,-44.01 69.29,-44.01 10.29,0 12.17,9.37 5.15,40.74 -8.43,37.44 -17.32,74.9 -26.22,112.35 -5.15,22.94 -1.87,30.9 5.61,30.9 25.75,0 78.2,-62.74 96.92,-96.9 5.15,-21.54 10.76,-45.87 16.85,-74.9l32.31 -12.18 5.15 0c-12.64,49.63 -25.28,102.07 -36.99,162.92 -2.33,14.51 -1.4,18.74 1.88,18.74 4.2,0 20.59,-11.25 33.7,-24.35l6.09 10.76z"/>
  <path class="fil0" d="M7772.45 3015.17c5.63,-18.25 12.64,-51.96 15.46,-66.94 -6.56,-3.28 -18.74,-6.56 -30.91,-6.56 -12.64,0 -25.28,3.75 -33.7,9.83 -31.83,23.42 -50.56,78.18 -50.56,124.53 0,21.07 5.61,30.89 12.64,30.89 18.25,0 71.62,-58.99 87.07,-91.75zm61.33 73.03c-25.75,31.37 -57.11,48.69 -68.82,48.69 -8.9,0 -14.99,-7.03 -7.96,-41.19l9.36 -44.47 -1.4 0c-17.79,25.74 -40.26,48.21 -60.39,64.6 -15.46,12.64 -30.9,21.07 -43.54,21.07 -12.17,0 -27.15,-15.46 -27.15,-52.43 0,-47.29 22,-98.79 56.18,-127.35 23.87,-19.65 58.06,-36.04 87.54,-36.04 9.36,0 18.72,1.41 29.03,3.75 6.08,1.4 12.64,2.8 17.79,2.8l0.93 1.88c-7.49,29.01 -21.53,92.69 -32.31,152.15 -2.81,15.91 -1.4,20.12 0.94,20.12 4.21,0 20.13,-11.24 34.17,-24.82l5.63 11.24z"/>
  <path class="fil0" d="M7927.41 2998.78c24.35,-45.87 51.96,-77.71 70.69,-77.71 7.96,0 15.92,5.61 20.13,12.17 3.28,5.62 3.28,13.58 -0.47,19.67 -3.26,5.61 -7.94,10.76 -12.64,14.04 -3.74,2.8 -7.49,2.33 -10.29,0 -5.15,-5.15 -10.31,-7.96 -15.46,-7.96 -5.61,0 -13.1,5.15 -23.87,20.13 -10.29,14.52 -24.81,36.52 -33.7,57.58 -7.03,31.37 -12.64,60.4 -18.73,91.29 -9.82,1.87 -22.47,5.15 -33.24,8.43l-3.28 -3.28c11.71,-50.1 25.28,-107.68 34.18,-157.29 2.8,-15.92 2.33,-20.61 -0.94,-20.61 -4.21,0 -19.65,9.83 -33.24,22.47l-6.56 -10.76c23.87,-26.22 52.9,-45.88 65.54,-45.88 12.18,0 12.64,21.53 5.63,54.31l-5.15 23.4 1.41 0z"/>
  <path class="fil0" d="M8156.79 3015.17c5.63,-18.25 12.64,-51.96 15.44,-66.94 -6.54,-3.28 -18.72,-6.56 -30.89,-6.56 -12.64,0 -25.28,3.75 -33.71,9.83 -31.83,23.42 -50.56,78.18 -50.56,124.53 0,21.07 5.61,30.89 12.64,30.89 18.25,0 71.63,-58.99 87.07,-91.75zm61.33 73.03c-25.75,31.37 -57.11,48.69 -68.82,48.69 -8.9,0 -14.99,-7.03 -7.96,-41.19l9.36 -44.47 -1.4 0c-17.79,25.74 -40.26,48.21 -60.39,64.6 -15.46,12.64 -30.9,21.07 -43.54,21.07 -12.17,0 -27.15,-15.46 -27.15,-52.43 0,-47.29 22,-98.79 56.18,-127.35 23.87,-19.65 58.06,-36.04 87.54,-36.04 9.36,0 18.72,1.41 29.03,3.75 6.08,1.4 12.64,2.8 17.79,2.8l0.93 1.88c-7.49,29.01 -21.53,92.69 -32.31,152.15 -2.8,15.91 -1.4,20.12 0.94,20.12 4.21,0 20.13,-11.24 34.17,-24.82l5.63 11.24z"/>
  <path class="fil0" d="M8453.59 3091.48c-27.61,30.43 -53.83,45.42 -66,45.42 -11.25,0 -15.92,-12.64 -7.03,-48.7 8.43,-34.64 16.39,-69.29 24.35,-103.93 6.56,-26.68 3.74,-33.24 -3.28,-33.24 -20.59,0 -74.9,57.58 -98.32,97.37 -5.61,22.94 -12.63,50.57 -18.25,79.13 -12.18,2.33 -24.81,5.61 -33.71,8.89l-2.81 -3.28c13.11,-51.03 26.68,-106.74 38.37,-158.69 3.29,-14.99 1.88,-18.74 -0.93,-18.74 -4.21,0 -18.25,9.83 -29.96,21.07l-6.56 -11.24c25.75,-27.15 52.91,-44.47 66.02,-44.47 10.29,0 12.17,15.92 3.75,51.96l-9.83 40.74 0.93 0c31.83,-43.54 66.47,-70.69 86.14,-81.93 12.17,-7.49 22,-10.76 30.91,-10.76 11.71,0 24.8,7.01 10.76,66.94 -7.49,31.83 -15.46,64.61 -22.94,96.9 -2.81,12.64 -2.33,16.86 0.94,16.86 4.21,0 16.85,-7.96 30.43,-21.54l7.02 11.24z"/>
  <path class="fil0" d="M8606.69 2945.89l-46.82 1.88 -27.15 128.26c-5.15,22.94 -2.33,28.09 2.8,28.09 7.97,0 30.43,-15.46 41.67,-27.15l7.03 9.83c-15.44,18.72 -51.03,50.08 -75.85,50.08 -10.76,0 -20.12,-13.58 -9.35,-61.79l27.14 -126.87 -34.64 0 -1.4 -4.21 11.71 -14.51 28.56 0 10.76 -44 35.11 -29.5 4.68 2.8 -16.85 70.7 54.76 0 -12.17 16.39z"/>
  <path class="fil0" d="M8704.52 2945.89c-12.17,7.49 -35.58,29.03 -44,81.46 66.94,-18.26 87.07,-39.33 87.07,-61.33 0,-15.92 -9.83,-25.28 -23.41,-25.28 -7.03,0 -14.51,1.87 -19.67,5.15zm66 138.1c-40.72,44.02 -75.83,52.9 -98.31,52.9 -22,0 -51.96,-12.64 -51.96,-68.35 0,-43.54 19.67,-92.69 56.64,-120.78 19.67,-15.46 44.47,-26.7 64.61,-26.7 24.81,0 40.72,17.79 40.72,37.46 0,46.35 -78.18,71.62 -123.58,82.86 -0.47,6.09 -0.47,10.76 -0.47,14.99 0,25.28 7.48,52.9 36.04,52.9 19.67,0 44.94,-13.11 68.82,-36.06l7.49 10.76z"/>
  <path class="fil0" d="M8888.96 2945.89c-12.17,7.49 -35.58,29.03 -44,81.46 66.94,-18.26 87.07,-39.33 87.07,-61.33 0,-15.92 -9.83,-25.28 -23.4,-25.28 -7.03,0 -14.51,1.87 -19.67,5.15zm66 138.1c-40.72,44.02 -75.83,52.9 -98.31,52.9 -22,0 -51.96,-12.64 -51.96,-68.35 0,-43.54 19.67,-92.69 56.64,-120.78 19.67,-15.46 44.47,-26.7 64.61,-26.7 24.81,0 40.72,17.79 40.72,37.46 0,46.35 -78.18,71.62 -123.58,82.86 -0.47,6.09 -0.47,10.76 -0.47,14.99 0,25.28 7.48,52.9 36.04,52.9 19.67,0 44.94,-13.11 68.82,-36.06l7.49 10.76z"/>
  <path class="fil0" d="M9131.93 3020.32l14.98 -66.94c-7.03,-6.56 -23.89,-12.18 -37.93,-12.18 -14.04,0 -24.33,3.75 -32.31,9.83 -31.36,22.47 -50.08,81.46 -50.08,120.79 0,23.87 6.56,34.64 14.51,34.64 23.88,0 75.38,-58.06 90.82,-86.14zm63.19 69.28c-24.81,29.5 -55.24,47.29 -68.81,47.29 -9.37,0 -15.93,-7.48 -8.43,-43.54l8.43 -39.79 -0.94 0.47c-21.07,28.08 -45.41,48.68 -61.79,61.32 -17.32,14.06 -32.3,21.54 -45.41,21.54 -15.44,0 -30.43,-18.73 -30.43,-56.18 0,-44 20.14,-94.1 54.31,-123.6 22,-19.19 60.86,-36.04 82.86,-36.04 6.56,0 16.39,0.47 27.62,5.15l15.44 -76.78c4.22,-21.54 2.81,-23.41 -17.79,-23.41l-14.97 0 1.4 -11.71c39.32,-4.21 64.61,-16.39 71.63,-16.39 4.21,0 5.15,3.75 3.28,13.11 -22,93.63 -41.67,184.44 -58.06,275.74 -1.86,10.78 -1.41,14.98 1.87,14.98 5.63,0 20.6,-10.3 33.25,-22.94l6.54 10.76z"/>
  <path class="fil0" d="M9224.61 3112.55c0,-16.85 11.24,-29.03 27.15,-29.03 13.11,0 22.47,10.78 22.47,24.81 0,18.74 -13.11,28.56 -27.15,28.56 -13.11,0 -22.47,-10.29 -22.47,-24.33z"/>
  <path class="fil0" d="M9334.61 3112.55c0,-16.85 11.24,-29.03 27.15,-29.03 13.11,0 22.47,10.78 22.47,24.81 0,18.74 -13.11,28.56 -27.15,28.56 -13.11,0 -22.47,-10.29 -22.47,-24.33z"/>
  <path class="fil0" d="M9444.62 3112.55c0,-16.85 11.24,-29.03 27.15,-29.03 13.11,0 22.47,10.78 22.47,24.81 0,18.74 -13.11,28.56 -27.15,28.56 -13.11,0 -22.47,-10.29 -22.47,-24.33z"/>
  <path class="fil0" d="M3124.99 2622.41c108.41,0 178.33,-68.78 178.33,-166.68 0,-97.92 -69.93,-166.68 -178.33,-166.68l-120.65 0 0 333.36 120.65 0zm-163.78 -370.65l166.11 0c130.54,0 218.54,83.92 218.54,203.97 0,120.06 -88,203.99 -218.54,203.99l-166.11 0 0 -407.96z"/>
  <polygon class="fil0" points="3789.44,2622.41 3789.44,2659.72 3500.95,2659.72 3500.95,2251.76 3780.69,2251.76 3780.69,2289.05 3544.07,2289.05 3544.07,2434.17 3755.05,2434.17 3755.05,2470.89 3544.07,2470.89 3544.07,2622.41 "/>
  <path class="fil0" d="M3910.69 2455.74c0,-119.47 90.93,-207.47 213.89,-207.47 59.46,0 113.07,19.8 149.21,59.44l-27.4 27.39c-33.22,-33.8 -74.01,-48.37 -120.64,-48.37 -98.49,0 -172.52,72.26 -172.52,169.02 0,96.75 74.03,169.01 172.52,169.01 46.63,0 87.42,-14.57 120.64,-48.96l27.4 27.39c-36.14,39.64 -89.75,60.03 -149.79,60.03 -122.37,0 -213.3,-88 -213.3,-207.47z"/>
  <path class="fil0" d="M4764.55 2455.74c0,-97.33 -72.85,-169.02 -170.76,-169.02 -98.5,0 -171.93,71.68 -171.93,169.02 0,97.32 73.43,169.01 171.93,169.01 97.92,0 170.76,-71.69 170.76,-169.01zm-385.24 0c0,-118.89 90.93,-207.47 214.47,-207.47 122.39,0 213.87,88 213.87,207.47 0,119.47 -91.48,207.47 -213.87,207.47 -123.54,0 -214.47,-88.59 -214.47,-207.47z"/>
  <path class="fil0" d="M5239.01 2391.63c0,-65.28 -43.13,-102.57 -124.72,-102.57l-108.4 0 0 204.56 108.4 0c81.6,0 124.72,-37.88 124.72,-101.99zm2.33 268.08l-93.26 -131.12c-10.48,1.17 -20.97,1.75 -32.62,1.75l-109.57 0 0 129.37 -43.14 0 0 -407.96 152.71 0c103.74,0 166.67,52.46 166.67,139.87 0,64.11 -33.79,108.99 -93.24,128.21l99.65 139.87 -47.2 0z"/>
  <path class="fil0" d="M5682.56 2515.76l-97.92 -219.13 -97.92 219.13 195.83 0zm15.74 34.97l-227.29 0 -48.96 108.98 -44.88 0 186.49 -407.96 42.56 0 186.5 407.96 -45.47 0 -48.94 -108.98z"/>
  <polygon class="fil0" points="5977.5,2289.06 5834.15,2289.06 5834.15,2251.75 6164,2251.75 6164,2289.06 6020.63,2289.06 6020.63,2659.71 5977.5,2659.71 "/>
  <polygon class="fil0" points="6291.08,2251.75 6334.21,2251.75 6334.21,2659.71 6291.08,2659.71 "/>
  <polygon class="fil0" points="6859.91,2251.76 6679.24,2659.71 6636.7,2659.71 6456.04,2251.76 6502.65,2251.76 6658.84,2606.1 6816.22,2251.76 "/>
  <polygon class="fil0" points="7265.59,2622.41 7265.59,2659.72 6977.11,2659.72 6977.11,2251.76 7256.84,2251.76 7256.84,2289.05 7020.23,2289.05 7020.23,2434.17 7231.2,2434.17 7231.2,2470.89 7020.23,2470.89 7020.23,2622.41 "/>
  <path class="fil0" d="M7597.27 2610.17l16.91 -33.22c29.12,28.57 81,49.54 134.61,49.54 76.35,0 109.58,-32.06 109.58,-72.26 0,-111.9 -251.19,-43.13 -251.19,-194.07 0,-60.03 46.62,-111.91 150.36,-111.91 46.04,0 93.83,13.41 126.47,36.13l-14.57 34.4c-34.97,-22.74 -75.76,-33.82 -111.91,-33.82 -74.59,0 -107.82,33.24 -107.82,74.03 0,111.89 251.18,44.29 251.18,192.91 0,60.03 -47.78,111.32 -152.11,111.32 -61.18,0 -121.21,-21.57 -151.52,-53.04z"/>
  <polygon class="fil0" points="8341.55,2622.41 8341.55,2659.72 8053.06,2659.72 8053.06,2251.76 8332.8,2251.76 8332.8,2289.05 8096.19,2289.05 8096.19,2434.17 8307.16,2434.17 8307.16,2470.89 8096.19,2470.89 8096.19,2622.41 "/>
  <path class="fil0" d="M8777.53 2391.63c0,-65.28 -43.13,-102.57 -124.72,-102.57l-108.4 0 0 204.56 108.4 0c81.6,0 124.72,-37.88 124.72,-101.99zm2.33 268.08l-93.26 -131.12c-10.48,1.17 -20.97,1.75 -32.62,1.75l-109.57 0 0 129.37 -43.14 0 0 -407.96 152.71 0c103.74,0 166.67,52.46 166.67,139.87 0,64.11 -33.79,108.99 -93.24,128.21l99.65 139.87 -47.2 0z"/>
  <polygon class="fil0" points="9320.14,2251.76 9139.48,2659.71 9096.93,2659.71 8916.27,2251.76 8962.88,2251.76 9119.07,2606.1 9276.45,2251.76 "/>
  <polygon class="fil0" points="9437.33,2251.75 9480.46,2251.75 9480.46,2659.71 9437.33,2659.71 "/>
  <path class="fil0" d="M9635.5 2455.74c0,-119.47 90.92,-207.47 213.89,-207.47 59.46,0 113.07,19.8 149.21,59.44l-27.41 27.39c-33.22,-33.8 -74.01,-48.37 -120.64,-48.37 -98.48,0 -172.51,72.26 -172.51,169.02 0,96.75 74.03,169.01 172.51,169.01 46.63,0 87.42,-14.57 120.64,-48.96l27.41 27.39c-36.14,39.64 -89.75,60.03 -149.79,60.03 -122.39,0 -213.31,-88 -213.31,-207.47z"/>
  <polygon class="fil0" points="10437.49,2622.41 10437.49,2659.72 10149.01,2659.72 10149.01,2251.76 10428.74,2251.76 10428.74,2289.05 10192.13,2289.05 10192.13,2434.17 10403.1,2434.17 10403.1,2470.89 10192.13,2470.89 10192.13,2622.41 "/>
  <path class="fil0" d="M10558.18 2610.17l16.9 -33.22c29.13,28.57 81,49.54 134.61,49.54 76.35,0 109.59,-32.06 109.59,-72.26 0,-111.9 -251.2,-43.13 -251.2,-194.07 0,-60.03 46.63,-111.91 150.36,-111.91 46.04,0 93.83,13.41 126.47,36.13l-14.57 34.4c-34.97,-22.74 -75.76,-33.82 -111.9,-33.82 -74.6,0 -107.82,33.24 -107.82,74.03 0,111.89 251.18,44.29 251.18,192.91 0,60.03 -47.78,111.32 -152.11,111.32 -61.18,0 -121.21,-21.57 -151.51,-53.04z"/>
  <polygon class="fil1" points="5869.65,439.64 6200.03,439.64 6200.03,2011.04 5869.65,2011.04 "/>
  <path class="fil1" d="M6507.08 871.68l330.37 0 0 1139.37 -330.37 0 0 -1139.37zm-40.24 -343.1c0,-103.76 82.6,-184.24 205.43,-184.24 122.83,0 205.41,76.24 205.41,177.89 0,110.13 -82.58,190.61 -205.41,190.61 -122.83,0 -205.43,-80.48 -205.43,-184.26z"/>
  <polygon class="fil1" points="8275.43,871.67 7794.69,2011.05 7453.72,2011.05 6975.11,871.67 7316.06,871.67 7631.62,1646.79 7957.76,871.67 "/>
  <path class="fil1" d="M8622.72 1341.82l561.21 0c-23.29,-144.02 -131.29,-237.2 -279.54,-237.2 -150.36,0 -258.37,91.07 -281.67,237.2zm866.18 192.72l-861.94 0c31.76,141.89 152.47,228.72 326.14,228.72 120.71,0 207.54,-36.02 285.91,-110.13l175.78 190.6c-105.89,120.72 -264.72,184.25 -470.15,184.25 -393.91,0 -650.17,-247.79 -650.17,-586.63 0,-340.97 260.5,-586.64 607.81,-586.64 334.61,0 592.98,224.49 592.98,590.87 0,25.41 -4.24,61.42 -6.35,88.94z"/>
  <path class="fil1" d="M10880.27 1358.76l0 652.28 -330.37 0 0 -601.44c0,-184.25 -84.71,-268.97 -230.85,-268.97 -158.83,0 -273.19,97.43 -273.19,307.09l0 563.33 -330.38 0 0 -1139.36 315.56 0 0 133.41c88.94,-97.43 222.38,-150.37 376.97,-150.37 268.96,0 472.26,156.72 472.26,504.04z"/>
  <polygon class="fil1" points="96.94,2629.14 1937.19,2633.28 1937.19,795.41 2291.9,795.41 2291.9,3001.59 96.94,3001.59 "/>
  <polygon class="fil1" points="96.94,198.41 2287.35,200.69 2287.35,533.4 452.26,533.4 452.26,2393.91 96.94,2393.91 "/>
  <polygon class="fil1" points="751.71,1110.4 1153.17,1110.4 1153.17,1517.43 751.71,1517.43 "/>
  <polygon class="fil1" points="1657.08,1520.54 1256.39,1520.54 1256.39,1109.94 1657.08,1109.94 "/>
  <polygon class="fil1" points="1151.82,1998.24 752.98,1998.24 752.98,1597.71 1151.82,1597.71 "/>
  <polygon class="fil1" points="1656.28,1998.24 1257.32,1998.24 1257.32,1597.74 1656.28,1597.74 "/>
  <g id="_2484208925504">
   <path class="fil1" d="M3539.43 2000.78c-114.97,0 -215.57,-20.63 -301.81,-61.9 -86.22,-41.28 -153.3,-99.37 -201.19,-174.39 -47.93,-74.96 -71.86,-163.35 -71.86,-265.18 0,-125.18 27.71,-236.29 83.15,-333.29 55.43,-97 132.74,-173.35 232,-229.07 99.21,-55.72 214.54,-83.59 345.93,-83.59 110.88,0 206.35,20.32 286.42,60.89 80.07,40.58 141.67,97.33 184.78,170.25 43.11,72.93 64.68,158.9 64.68,257.97 0,30.26 -1.74,60.54 -5.14,90.79 -3.43,30.28 -7.89,59.17 -13.35,86.68l-903.36 0 34.91 -198.13 702.15 0 -147.82 59.86c10.94,-59.15 8.54,-108.35 -7.18,-147.56 -15.75,-39.2 -42.1,-69.46 -79.04,-90.8 -36.96,-21.32 -81.46,-31.99 -133.46,-31.99 -65.7,0 -121.13,16.86 -166.31,50.56 -45.17,33.72 -79.04,78.76 -101.63,135.17 -22.58,56.44 -33.87,119.01 -33.87,187.8 0,79.81 22.9,139.31 68.78,178.5 45.85,39.21 113.24,58.82 202.24,58.82 53.38,0 104.71,-8.25 153.99,-24.76 49.26,-16.5 92.37,-39.89 129.33,-70.17l147.83 227.02c-67.08,50.92 -141,88.06 -221.74,111.44 -80.78,23.36 -163.58,35.07 -248.43,35.07z"/>
   <path class="fil1" d="M5124.41 853.36c94.44,0 174.52,19.29 240.21,57.79 65.71,38.54 112.22,96.32 139.61,173.36 27.36,77.04 29.42,171.99 6.17,284.78l-121.14 614.98 -355.18 0 117.03 -588.15c15.04,-75.65 9.24,-134.14 -17.44,-175.41 -26.69,-41.26 -75.65,-61.92 -146.8,-61.92 -73.92,0 -135.5,21.68 -184.78,65.01 -49.28,43.33 -83.5,111.11 -102.65,203.28l-110.88 557.19 -355.18 0 219.68 -1114.4 336.71 0 -61.6 313.68 -47.22 -92.86c52,-81.17 117.36,-141 196.08,-179.54 78.7,-38.5 161.17,-57.79 247.39,-57.79z"/>
  </g>
 </g>
</svg>
